<svg xmlns="http://www.w3.org/2000/svg" width="22" height="22" viewBox="0 0 22 22"><path fill="none" d="M0 0h22v22H0z"/><g fill="#FFF"><path d="M18.922 16.05L12.237 4.315c-.28-.498-.903-.576-1.213-.576-.312 0-.936.078-1.214.576L3.078 16.008c-.188.34-.03.707.373.89.406.157.84 0 1.03-.313l.566-.852H17l.52.893c.186.315.622.47 1.026.315.406-.184.562-.55.376-.89zm-7.898-2.02a2.628 2.628 0 1 1-.003-5.256 2.628 2.628 0 0 1 .004 5.255zm0-8.72l1.284 2.237a4.075 4.075 0 0 0-1.284-.21c-.45 0-.88.076-1.284.21l1.284-2.236zm-3.978 6.93c.186.885.66 1.664 1.32 2.234H5.763l1.282-2.234zm6.636 2.235a4.057 4.057 0 0 0 1.32-2.234l1.282 2.235h-2.602z"/><circle cx="11.024" cy="11.404" r="1.321"/></g></svg>