<?xml version="1.0" standalone="no"?>
<!DOCTYPE svg PUBLIC "-//W3C//DTD SVG 20010904//EN"
 "http://www.w3.org/TR/2001/REC-SVG-20010904/DTD/svg10.dtd">
<svg version="1.0" xmlns="http://www.w3.org/2000/svg"
 width="182.000000pt" height="62.000000pt" viewBox="0 0 182.000000 62.000000"
 preserveAspectRatio="xMidYMid meet">
<metadata>
Created by potrace 1.13, written by Peter Selinger 2001-2015
</metadata>
<g transform="translate(0.000000,62.000000) scale(0.100000,-0.100000)"
fill="#000000" stroke="none">
<path d="M831 563 c-17 -32 -47 -85 -66 -118 -39 -68 -41 -75 -20 -75 8 0 15
5 15 10 0 6 47 10 120 10 73 0 120 -4 120 -10 0 -5 7 -10 15 -10 8 0 15 4 15
9 0 4 -30 61 -66 125 -45 78 -72 116 -84 116 -11 0 -29 -22 -49 -57z"/>
<path d="M1420 460 c-37 -9 -70 -42 -70 -70 0 -18 30 -50 48 -50 22 0 22 -19
1 -55 l-22 -36 -14 30 c-22 45 -91 75 -168 73 -92 -1 -145 -30 -218 -119 -41
-49 -67 -73 -81 -73 -19 1 -18 4 12 29 56 48 28 87 -31 41 -16 -13 -28 -16
-32 -10 -8 13 -35 13 -35 0 0 -5 7 -10 15 -10 38 0 1 -45 -46 -55 -43 -10 -57
6 -41 47 22 60 -22 61 -59 2 -31 -51 -22 -60 60 -62 l71 -2 50 51 c28 29 54
49 57 45 4 -4 -7 -20 -25 -37 -18 -16 -32 -34 -32 -40 0 -16 30 -22 56 -11 15
7 24 8 24 2 0 -6 6 -10 13 -10 6 0 19 -18 28 -39 19 -45 77 -81 131 -81 33 0
125 36 116 45 -3 3 -25 -4 -49 -15 -24 -11 -54 -20 -67 -20 -40 0 -91 28 -112
62 -30 49 -26 56 24 51 24 -3 53 0 66 7 18 9 24 9 30 0 5 -9 21 -11 52 -6 29
4 58 2 85 -8 49 -17 103 -4 103 26 0 20 46 76 55 66 4 -3 -1 -20 -10 -37 -9
-18 -13 -36 -10 -41 8 -13 45 -13 45 0 0 5 -7 7 -15 4 -19 -8 -19 4 0 36 8 14
14 33 15 44 0 15 -5 17 -27 12 -26 -7 -26 -7 -10 18 10 14 24 37 32 50 11 16
28 25 56 29 22 3 58 17 80 31 21 14 42 26 47 26 9 0 32 -44 32 -60 0 -14 -44
-12 -58 2 -9 9 -12 9 -12 0 0 -6 15 -19 33 -28 17 -9 33 -18 35 -19 2 -1 -5
-22 -14 -45 -11 -26 -32 -53 -57 -71 -41 -30 -92 -38 -100 -16 -5 15 19 64 35
70 7 2 9 8 5 13 -16 17 -58 -46 -55 -80 3 -29 6 -31 40 -30 56 2 116 45 142
104 19 44 25 49 61 55 107 18 151 98 82 149 -24 17 -42 21 -105 20 -42 -1 -90
-3 -107 -4 -16 -2 -50 -1 -75 2 -25 4 -61 3 -80 -2z m-147 -134 c69 -29 98
-91 72 -152 -14 -34 -17 -36 -47 -30 -18 3 -50 9 -70 12 -33 6 -38 10 -38 33
0 15 5 32 12 39 6 6 8 15 5 19 -4 4 -22 -7 -39 -24 l-31 -31 -18 21 c-9 12
-21 18 -25 14 -5 -4 -2 -12 5 -17 35 -21 -29 -67 -77 -55 -20 5 -23 10 -17 28
4 12 8 36 9 54 3 76 162 131 259 89z"/>
<path d="M225 220 c-35 -37 -31 -50 5 -15 37 35 49 26 27 -20 -19 -40 -20 -45
-9 -45 4 0 19 21 31 48 27 53 40 43 17 -12 -22 -53 -1 -44 23 9 11 25 25 45
31 45 6 0 5 -11 -5 -30 -28 -54 -23 -57 73 -58 121 -2 166 20 146 72 -5 13 1
16 30 16 20 0 36 -3 36 -6 0 -3 -14 -24 -31 -45 l-31 -39 25 0 c16 0 33 -10
46 -27 48 -65 84 -80 111 -48 12 15 6 35 -11 35 -6 0 -7 -5 -3 -11 10 -16 -17
-29 -37 -18 -9 5 -27 25 -39 44 -12 19 -28 35 -36 35 -23 0 -16 20 19 55 l34
34 -48 6 c-42 6 -61 2 -99 -23 -2 -2 2 -7 10 -12 22 -14 1 -43 -38 -54 -43
-12 -65 6 -51 40 13 36 11 54 -5 54 -15 0 -58 -51 -69 -82 -7 -18 -27 -25 -27
-9 0 5 7 25 15 45 8 20 14 36 13 37 -2 1 -31 2 -65 4 -56 2 -65 -1 -88 -25z"/>
</g>
</svg>
