<svg xmlns="http://www.w3.org/2000/svg" width="646" height="180" viewBox="0 0 646 180"><path fill="#FFF" d="M64.212 152.632c12.177.914 23.69 1.218 26.438 1.218h18.34v-1c0-2.36.045-8.954.09-15.354.04-6.038.08-11.904.08-13.886 0-14.093-.145-16.886-2.005-21.362l12.172 2.787c2.453.577 2.453 1.107 2.453 1.575 0 1.78-2.106 2.44-4.454 3.012l-1.14.284-.016.765c-.172 8.96-.167 10.142.17 42.19l.01.99h22.39v-33.13c-.15-9.202-.405-12.763-2.142-17.8l12.397 2.986c1.626.405 2.024.644 2.024 1.214 0 1.32-2.874 2.276-4.417 2.79l-.665.223-.018.7c-.128 4.992-.063 23.097-.024 33.913.013 3.68.024 6.62.024 8.103v1h28.192l5.23-7.033.085-.12c1.037-1.483 1.218-1.688 1.493-1.688.794 0 1.837.868 2.674 1.565l7.72 6.69.15.124c.936.776 1.206 1.03 1.206 1.668 0 .282 0 .87-1.55.87H88.27c-5.612 0-14.57.604-21.235 1.76l-2.823-5.056zm-19.09 4.58c17.12-21.84 19.158-55.338 19.158-78.99 0-11.73-.303-24.202-2.425-36.228L74.5 46.41h34.15v-1c0-10.223-.08-14.195-.13-16.824-.024-1.18-.04-2.046-.04-3.064-.163-4.72-.928-8.35-2.363-14.29l12.69 3.022.448.12c1.782.474 1.844.6 1.844 1.118 0 1.38-1.19 2.187-4.632 4.317l-.64.395v8.017h37.406l4.774-7.162.04-.097c.294-.74 1.067-1.58 1.45-1.58.575 0 2.004.887 2.692 1.576l7.524 6.67.158.132c.936.777 1.205 1.03 1.205 1.67 0 .28 0 .87-1.55.87h-53.87v16.11h52.676l5.878-4.454c1.07-.914 1.39-.98 1.838-.986.264.11.956.538 2.712 1.86l.197.15 9.147 7.454c1.015.846 1.502 1.432 1.502 2.454 0 1.316-.3 2.06-6.48 2.06-2.875 0-4.735-.268-6.888-.58l-1.115-.16-.354.355c-1.862 1.86-6.64 5.925-10.374 8.936 1.873-5.586 3.23-10.974 3.735-13.835l.208-1.174h-96.88v1c0 15.724-.21 38.793-2.034 57.534-2.016 20.33-10.61 38.024-24.3 50.187zm108.146-15.188c3.14-5.29 5.994-10.787 8.765-16.127.638-1.23 1.277-2.462 1.92-3.694 3.553-7.104 4.206-9.145 4.516-11.655l10.814 8.41.12.106c1.008.862 1.534 1.335 1.534 1.826 0 .644 0 .937-3.045.937-.924 0-2.047-.03-3.407-.067l-.464-.013-.31.346c-2.283 2.554-14.727 14.81-20.444 19.93zm-61.938-.374c-3.353 0-4.454-3.312-4.788-6.09l-.075-.62c-.748-6.164-1.4-11.542-6.308-19.25 3.94 2.056 7.894 4.266 10.755 7.556 3.828 4.748 5.194 9.762 5.194 12.604 0 4.58-3.005 5.8-4.78 5.8zm39.44-48.45c-11.744 0-17.918-.243-18.91-5.476-.484-2.587-.657-13.628-.493-16.588l.065-1.18-8.824.98c-5.585.64-14.43 2.225-21.08 4.242l-3.292-4.704c12.083-.512 22.817-1.303 26.487-1.804l6.475-.785V67c0-6.933 0-9.145-1.25-15.94l11.71 3.3c.562.143 1.14.46 1.14.74 0 1.033 0 1.166-4.56 3.53l-.54.28v8.353l20.108-2.213 3.148-4.815c1.187-1.928 1.286-1.928 2.053-1.928.654 0 1.263.306 2.25 1.128l4.266 3.413c1.42 1.065 1.664 1.472 1.664 1.94 0 .26 0 .87-1.38.87h-.057l-32.052 3.677v.892c0 11.936.414 12.9.59 13.313 1.312 2.844 4.886 2.987 15.03 2.987 28.205 0 30.996-1.265 34.62-4.125 1.92-1.51 5.38-5.458 7.342-15.086h.304c.69 7.366 1.488 10.874 4.198 13.04l.077.065c2.01 1.678 2.437 2.08 2.437 3.405 0 2.29-3.705 6.244-11.942 7.858-5.856 1.146-31.43 1.518-39.586 1.518zM259.12 163.07c-2.048 0-4.44-1.074-4.44-4.1 0-2.73 1.56-4.198 4.87-6.68 5.668-4.534 8.34-12.43 9.472-17.045.42 2.386.828 5.12.828 8.764 0 13.167-5.39 19.06-10.73 19.06zm123.418-2.04c-3.294 0-4.202-2.256-5.49-7.402-1.93-6.765-4.683-12.95-8.023-18.078 14.698 9.99 18.634 13.21 18.634 19.51-.002 2.065-1.072 5.97-5.122 5.97zm-78.71-.17c-4.283 0-4.78-4.572-4.78-8.01l-.032-.683c-.154-3.155-.463-9.463-2.97-15.585 6.276 5.358 12.393 10.986 12.393 18.477 0 3.985-2.39 5.8-4.61 5.8zm37.4-1.53c-3.64 0-4.438-3.136-4.9-6.075l-.063-.4c-.177-1.66-1.137-9.555-3.773-15.638 9.935 7.827 13.007 10.607 13.007 16.653 0 1.28-.31 5.46-4.272 5.46zm-88.014-42.057c7.265.57 12.34.887 23.912 1.048l1.014.015V79.09h-7.46c-4.047 0-13.53.405-21.235 1.915l-2.83-5.187c8.472.75 18.21 1.192 26.444 1.192h5.08V37.95h-2.046l-.297.446c-7.09 10.635-13.456 18.565-19.785 24.617 7.49-11.763 18.664-31.63 23.09-44.302 1.235-3.563 1.508-7.015 1.648-9.233l11.634 6.425c.874.43 1.264.932 1.264 1.63 0 .83 0 .918-6.04 2.43l-.402.1-1.952 3.253c-3.043 5.08-4.88 8.143-6.744 11.012l-1.004 1.545h86.576l5.902-5.903c.404-.405.73-.737.995-1.008.45-.46.838-.855.96-.922-.018.01.017.012.057.012l.344-.004c.217 0 .373 0 2.27 1.49l7.732 6.014.09.044c.395.198 1.145.764 1.145 1.485 0 .494-.114.87-1.55.87h-20.04v39.06h18.092l5.905-6.265c.894-.975 1.657-1.807 1.865-1.89.002 0 .03-.005.127-.005.22.02.822.296 2.407 1.5l.223.17 6.74 5.902c1.046.87 1.36 1.288 1.36 1.797 0 .492-.115.87-1.55.87h-35.17v39.398h15.88l6.076-6.433c.774-.85 1.493-1.643 1.69-1.722 0 0 .03-.006.133-.006.272.01 1.27.48 2.63 1.5l7.09 6.08c.073.077.215.208.36.342.615.564.99.943.99 1.447 0 .757-.972.87-1.55.87H277.31c-3.255 0-13.256.32-21.392 1.756l-2.704-5.05zm82.934 1.217h19.85v-39.4h-19.85v39.4zm-25.84 0h19.34v-39.4h-19.34v39.4zm-26.01 0h19.51v-39.4H284.3v39.4zm51.85-41.48h19.85V37.95h-19.85v39.06zm-25.84 0h19.34V37.95h-19.34v39.06zm-26.01 0h19.51V37.95H284.3v39.06zM574.157 164.41c-1.823-5.933-6.83-10.653-11.558-12.667 1.16-.013 2.53-.02 3.992-.03 9.26-.06 13.276-.14 14.178-.477 1.508-.645 2.348-1.972 2.348-3.656.167-16.705.34-44.298.34-61.54v-1h-34.735l-.07.924c-.174 2.248-.52 5.272-1.855 12.126l-.152.78.135.06-.384 1.624c-1.433 6.074-5.645 23.92-25.414 34.147 18.09-17.103 20.037-38.212 20.993-48.567l.1-1.092h-27.172l-.08.914c-.683 7.864-.683 18.795-.683 26.776 0 2.164.047 6.857.103 12.453.128 12.854.304 30.46.07 33.016-.12 1.334-.408 1.8-2.34 2.766-2.235.89-3.587 1.084-4.313 1.084-.707 0-1.89 0-1.89-3.59 0-1.198.058-2.583.167-4.004.34-5.447 1.362-33.9 1.362-51.755 0-12.548-.314-15.79-1.34-25.168l11.16 5.43h25.143l.055-.942C543 70.43 543 64.57 543 59.862v-1h-20.38c-5.826 0-14.843.656-21.243 1.913l-2.815-5.044c11.603.858 22.904 1.052 26.438 1.052h56.728l4.59-5.323.034-.053c.452-.68 1.41-1.678 1.77-1.77.436.004 1.978 1.09 2.472 1.582l.047.046 6.514 4.97c1.164.78 1.307 1.437 1.307 1.926 0 .345 0 .7-1.55.7h-47.068v1c0 9.053-.27 16.044-.845 22.003l-.106 1.097h30.598l4.677-4.856c.72-.6 1.525-1.264 2.037-1.264.275.037 1.136.592 1.42.773.154.1.29.185.392.245l5.712 4.703.14.14c.4.388.856.826.856 1.3 0 .444-.664.937-1.15 1.297l-.1.074c-.733.424-1.65 1.048-2.393 1.552-.433.293-.774.53-.915.606l-.547.296.004.634c.168 4.198.34 43.754.34 46.71 0 19.07 0 20.63-4.084 24.24-3.34 2.882-8.46 4.24-11.72 5zm-115.22-7.61c15.04-21.912 21.398-41.003 22.522-67.145l.05-1.17.12-.044v-.7c0-.843.044-2.097.1-3.708.1-2.954.24-7.002.24-11.93 0-3.298-.06-31.067-2.035-42.997l12.207 5.577h37.287l-.03-1.03c-.34-11.69-.51-12.978-1.04-15.636 0 0-1.365-5.76-1.515-6.4l14.215 3.822c.96.24.96.846.96 1.074 0 1.173-2.614 2.477-4.715 3.525l-.865.432-.03.582c-.085 1.725-.085 4.07-.085 6.34 0 2.244 0 4.564-.084 6.24l-.05 1.05h40.486l6.022-8.212c.664-.886 1.49-1.99 1.97-1.99.376 0 1.547.77 2.693 1.918l8.015 7.503c1.367 1.37 1.383 1.966 1.383 1.99 0 .283 0 .87-1.55.87h-105.73l.01 1.01c.156 16.202-.118 40.006-1.356 58.233-2.164 34.155-19.902 52.492-29.195 60.796zm109.582-29.09c-2.462 0-2.635-.207-6.163-7.43l-.25-.51c-4.437-9.215-7.65-12.977-13.925-19.95l-.393-.437c3.99 1.834 24.83 11.968 24.83 23.546-.002 4.436-3.14 4.78-4.1 4.78zm-111.01-14.79c-.368 0-.61-.27-.986-.836l-7.763-14.432c7.005-.438 8.38-.704 19.626-4.72.924-.336 3.624-1.236 6.235-2.106 1.71-.57 3.457-1.152 4.738-1.587-11.694 10.046-13.082 11.266-20.33 18.177l-.29.277-.018.4c-.175 3.88-.413 4.826-1.21 4.826zm10.37-43.86c-2.18 0-3.125-1.704-5.055-5.562-4.017-8.63-5.788-12.436-9.698-15.828 8.224 2.766 19.362 6.967 19.362 15.592 0 2.742-1.893 5.8-4.61 5.8z"/><path fill="none" stroke="#FFF" stroke-width="2" stroke-miterlimit="10" d="M645 89v90h-33M1 91V1h33"/></svg>